<svg width="287" height="54" viewBox="0 0 287 54" fill="none" xmlns="http://www.w3.org/2000/svg">
<path d="M22.0001 51.0999C21.9001 51.0999 21.9 51.0999 21.8 51.0999H21.7001H21.6001C21.5001 51.0999 21.4 50.9999 21.4 50.8999L15.4 45.6999C15 45.2999 14.9001 44.6999 15.3001 44.2999C15.7001 43.8999 16.3001 43.7999 16.7001 44.1999L21.1001 47.9999V42.3999C21.1001 41.7999 21.5001 41.3999 22.1001 41.3999C22.7001 41.3999 23.1 41.7999 23.1 42.3999V47.9999L27.5 44.1999C27.9 43.7999 28.6 43.8999 28.9 44.2999C29.3 44.6999 29.2 45.2999 28.8 45.6999L22.8 50.8999C22.7 50.9999 22.7001 50.9999 22.6001 51.0999H22.5001C22.4001 51.0999 22.4 51.0999 22.3 51.0999C22.1 51.0999 22.0001 51.0999 22.0001 51.0999Z" fill="#1C5C98"/>
<path d="M36.0999 41.4999C35.6999 41.4999 35.2999 41.2999 35.1999 40.8999C34.9999 40.3999 35.1999 39.7999 35.6999 39.5999L40.9999 37.2999L35.9999 34.7999C35.4999 34.5999 35.2999 33.9999 35.4999 33.4999C35.6999 32.9999 36.2999 32.7999 36.7999 32.9999L41.7999 35.4999L40.4999 29.9999C40.3999 29.4999 40.6999 28.8999 41.1999 28.7999C41.6999 28.6999 42.2999 28.9999 42.3999 29.4999L44.2999 37.1999C44.2999 37.2999 44.2999 37.3999 44.2999 37.4999V37.5999C44.2999 37.6999 44.2999 37.7999 44.2999 37.7999C44.2999 37.7999 44.2999 37.8999 44.1999 37.8999C44.1999 37.8999 44.1999 37.9999 44.0999 37.9999C44.0999 38.0999 43.9999 38.0999 43.9999 38.1999C43.9999 38.1999 43.9999 38.1999 43.8999 38.2999C43.7999 38.3999 43.6999 38.3999 43.6999 38.3999L36.3999 41.4999C36.2999 41.4999 36.1999 41.4999 36.0999 41.4999Z" fill="#1C5C98"/>
<path d="M2.1 21.6998C1.6 21.6998 1.2 21.2998 1.1 20.7998L0 12.9998C0 12.8998 0 12.7998 0 12.6998V12.5998C0 12.4998 0 12.4998 0.1 12.3998C0.1 12.3998 0.1 12.2998 0.2 12.2998C0.2 12.2998 0.2 12.1998 0.3 12.1998C0.3 12.0998 0.4 12.0998 0.4 12.0998C0.4 12.0998 0.5 12.0998 0.5 11.9998C0.6 11.9998 0.7 11.8998 0.8 11.8998L8.4 9.59979C8.9 9.39979 9.5 9.69979 9.6 10.2998C9.8 10.7998 9.5 11.3998 8.9 11.4998L3.4 13.1998L8.1 16.1998C8.6 16.4998 8.7 17.0998 8.4 17.5998C8.1 17.9998 7.5 18.0998 7 17.7998L2.3 14.7998L3.1 20.4998C3.2 20.9998 2.8 21.5998 2.3 21.5998C2.2 21.6998 2.2 21.6998 2.1 21.6998Z" fill="#1C5C98"/>
<path d="M41.7999 21.1999C41.7999 21.1999 41.6999 21.1999 41.7999 21.1999C41.1999 21.1999 40.7999 20.6999 40.7999 20.0999L41.0999 14.2999L36.6999 17.6999C36.2999 17.9999 35.5999 17.9999 35.2999 17.4999C34.9999 17.0999 34.9999 16.3999 35.4999 16.0999L39.8999 12.6999L34.1999 11.4999C33.6999 11.3999 33.2999 10.8999 33.3999 10.2999C33.4999 9.69991 33.9999 9.39991 34.5999 9.49991L42.3999 11.0999C42.4999 11.0999 42.5999 11.0999 42.6999 11.1999C42.6999 11.1999 42.7999 11.1999 42.7999 11.2999L42.8999 11.3999L42.9999 11.4999L43.0999 11.5999C43.0999 11.6999 43.1999 11.6999 43.1999 11.7999V11.8999C43.1999 11.9999 43.1999 12.0999 43.1999 12.1999L42.7999 20.0999C42.7999 20.7999 42.2999 21.1999 41.7999 21.1999Z" fill="#FA830B"/>
<path d="M9.49998 40.8C9.39997 40.8 9.39998 40.8 9.29998 40.8L1.49998 39.4C1.39998 39.4 1.29998 39.4 1.19998 39.3C1.19998 39.3 1.19998 39.3 1.09998 39.3C0.999976 39.3 0.999976 39.2 0.899976 39.2L0.799976 39.1L0.699976 39C0.699976 38.9 0.599976 38.9 0.599976 38.8V38.7C0.599976 38.6 0.599976 38.5 0.599976 38.4L0.799976 30.5C0.799976 29.9 1.29998 29.5 1.79998 29.5C2.39998 29.5 2.79998 30 2.79998 30.5L2.69998 36.3L6.99998 32.8C7.39998 32.4 8.09998 32.5 8.39998 32.9C8.79998 33.3 8.69998 34 8.29998 34.3L3.99998 37.9L9.69998 38.9C10.2 39 10.6 39.5 10.5 40.1C10.4 40.5 9.99998 40.8 9.49998 40.8Z" fill="#1C5C98"/>
<path d="M22 9.8C21.4 9.8 21 9.4 21 8.8V3.2L16.6 7C16.2 7.4 15.5 7.3 15.2 6.9C14.8 6.5 14.9 5.9 15.3 5.5L21.3 0.3C21.4 0.2 21.4 0.2 21.5 0.1H21.6C21.7 0.1 21.7 0.1 21.8 0H21.9H22C22.1 0 22.1 0 22.2 0H22.3C22.4 0 22.5 0.1 22.5 0.2L28.5 5.4C28.9 5.8 29 6.4 28.6 6.8C28.2 7.2 27.6 7.3 27.2 6.9L23 3.2V8.8C23 9.3 22.5 9.8 22 9.8Z" fill="#1C5C98"/>
<path d="M21.6 13L10.9 19.2V31.6L21.6 37.7L32.3 31.6V19.2L21.6 13Z" fill="#FA830B"/>
<path d="M134.3 12.5V28.3H132.3V14.2H125V28.3H123V12.5H134.3ZM143.9 28.3L143.7 26.9H143.6C143 27.8 141.8 28.6 140.1 28.6C137.8 28.6 136.6 27 136.6 25.3C136.6 22.6 139 21.1 143.4 21.1V20.9C143.4 20 143.1 18.3 140.8 18.3C139.7 18.3 138.6 18.6 137.9 19.1L137.4 17.7C138.3 17.1 139.7 16.7 141.1 16.7C144.6 16.7 145.4 19.1 145.4 21.3V25.5C145.4 26.5 145.4 27.4 145.6 28.2H143.9V28.3ZM143.6 22.5C141.4 22.5 138.8 22.9 138.8 25C138.8 26.3 139.7 27 140.7 27C142.2 27 143.1 26.1 143.4 25.1C143.5 24.9 143.5 24.7 143.5 24.4V22.5H143.6ZM148.6 20.6C148.6 19.1 148.6 18 148.5 16.9H150.3L150.4 18.8C151.2 17.4 152.6 16.6 154.4 16.6C157.1 16.6 159.2 18.9 159.2 22.4C159.2 26.5 156.7 28.5 154.1 28.5C152.6 28.5 151.3 27.8 150.6 26.7V32.9H148.6V20.6ZM150.7 23.6C150.7 23.9 150.7 24.2 150.8 24.4C151.2 25.8 152.4 26.8 153.9 26.8C156.1 26.8 157.3 25 157.3 22.4C157.3 20.1 156.1 18.2 153.9 18.2C152.5 18.2 151.2 19.2 150.8 20.7C150.7 21 150.7 21.3 150.7 21.5V23.6ZM169.2 16.9V18.5H165.7V28.2H163.7V18.5H160.2V16.9H169.2ZM172.7 16.9V21.5H178.1V16.9H180.1V28.2H178.1V23.1H172.7V28.2H170.7V16.9H172.7ZM184.4 23C184.4 25.8 186.2 26.9 188.3 26.9C189.8 26.9 190.7 26.6 191.4 26.3L191.8 27.8C191.1 28.1 189.8 28.5 188 28.5C184.5 28.5 182.4 26.2 182.4 22.8C182.4 19.4 184.4 16.7 187.7 16.7C191.4 16.7 192.4 20 192.4 22C192.4 22.4 192.4 22.7 192.3 23H184.4ZM190.5 21.5C190.5 20.2 190 18.2 187.6 18.2C185.5 18.2 184.6 20.1 184.4 21.5H190.5ZM194.8 20.6C194.8 19.1 194.8 18 194.7 16.9H196.5L196.6 18.8C197.4 17.4 198.8 16.6 200.6 16.6C203.3 16.6 205.4 18.9 205.4 22.4C205.4 26.5 202.9 28.5 200.3 28.5C198.8 28.5 197.5 27.8 196.8 26.7V32.9H194.8V20.6ZM196.8 23.6C196.8 23.9 196.8 24.2 196.9 24.4C197.3 25.8 198.5 26.8 200 26.8C202.2 26.8 203.4 25 203.4 22.4C203.4 20.1 202.2 18.2 200 18.2C198.6 18.2 197.3 19.2 196.9 20.7C196.8 21 196.8 21.3 196.8 21.5V23.6ZM209.9 12.5V19.5H210.5L215.9 12.5H218.4L212.4 19.7C215 20.1 216 21.6 216.8 23.8C217.4 25.4 217.8 26.9 218.5 28.3H216.3C215.7 27.2 215.3 25.8 214.9 24.6C214.2 22.5 213.2 21.1 210.5 21.1H209.8V28.3H207.8V12.5H209.9ZM230.5 22.5C230.5 26.7 227.6 28.5 224.9 28.5C221.8 28.5 219.5 26.3 219.5 22.7C219.5 18.9 222 16.7 225.1 16.7C228.3 16.7 230.5 19 230.5 22.5ZM221.5 22.6C221.5 25.1 222.9 27 224.9 27C226.9 27 228.3 25.2 228.3 22.6C228.3 20.7 227.3 18.2 224.9 18.2C222.5 18.2 221.5 20.5 221.5 22.6ZM234.8 16.9V21.5H240.2V16.9H242.2V28.2H240.2V23.1H234.8V28.2H232.8V16.9H234.8ZM253.4 27.8C252.9 28.1 251.7 28.5 250.1 28.5C246.7 28.5 244.5 26.2 244.5 22.7C244.5 19.2 246.9 16.7 250.6 16.7C251.8 16.7 252.9 17 253.5 17.3L253 18.9C252.5 18.6 251.7 18.4 250.6 18.4C248 18.4 246.6 20.3 246.6 22.7C246.6 25.3 248.3 26.9 250.5 26.9C251.7 26.9 252.4 26.6 253 26.3L253.4 27.8ZM261.9 28.3L261.7 26.9H261.6C261 27.8 259.8 28.6 258.1 28.6C255.8 28.6 254.6 27 254.6 25.3C254.6 22.6 257 21.1 261.4 21.1V20.9C261.4 20 261.1 18.3 258.8 18.3C257.7 18.3 256.6 18.6 255.9 19.1L255.4 17.7C256.3 17.1 257.7 16.7 259.1 16.7C262.6 16.7 263.4 19.1 263.4 21.3V25.5C263.4 26.5 263.4 27.4 263.6 28.2H261.9V28.3ZM261.6 22.5C259.4 22.5 256.8 22.9 256.8 25C256.8 26.3 257.7 27 258.7 27C260.2 27 261.1 26.1 261.4 25.1C261.5 24.9 261.5 24.7 261.5 24.4V22.5H261.6ZM275.3 16.9V28.2H273.3V18.5H269.4V21.4C269.4 24.6 269.1 26.7 267.6 27.7C267 28.1 266.4 28.4 265.4 28.4L265.2 26.8C265.6 26.7 266 26.6 266.3 26.3C267.4 25.5 267.5 23.9 267.5 21.4V16.8H275.3V16.9ZM286.1 16.9V18.5H282.6V28.2H280.6V18.5H277V16.9H286.1Z" fill="#1C5C98"/>
<path d="M62.4001 12.5V14.2H55.6V18.4C56.1 18.3 57 18.3 57.5 18.3C59 18.3 60.5 18.6 61.6 19.4C62.8 20.2 63.6 21.4 63.6 23.3C63.6 24.8 63.1 25.9 62.3 26.7C61 28 58.9001 28.5 56.7001 28.5C55.3001 28.5 54.2 28.4 53.5 28.3V12.5H62.4001ZM55.6 26.7C56.1 26.8 56.6 26.8 57.3 26.8C58.6 26.8 59.8 26.4 60.6 25.6C61.1 25 61.5 24.3 61.5 23.3C61.5 22.1 61.0001 21.3 60.2001 20.7C59.4001 20.1 58.3001 19.9 57.2001 19.9C56.7001 19.9 56.1 19.9 55.6 20V26.7ZM67.9001 16.9V21.7C67.9001 23.5 67.9001 24.6 67.8001 26.2H67.9001C68.6001 24.8 69 24 69.7 22.7L73.2 16.9H75.6V28.2H73.6V23.4C73.6 21.6 73.6 20.6 73.7 18.8H73.6C72.9 20.3 72.4 21.2 71.7 22.3C70.6 24.1 69.4 26.2 68.2 28.2H66V16.9H67.9001ZM79.7 21.7H80.7C82.4 21.7 83.6 20.9 83.6 19.9C83.6 18.9 82.7001 18.3 81.4001 18.3C80.5001 18.3 79.5 18.6 78.7 19.1L78.2 17.8C79.3 17.1 80.7001 16.8 82 16.8C83.7001 16.8 85.8001 17.6 85.8001 19.8C85.8001 21.2 84.5001 22.1 83.3001 22.4C85.0001 22.5 86.4001 23.6 86.4001 25.2C86.4001 27.7 83.9 28.6 81.5 28.6C80.2001 28.6 78.8001 28.2 77.8001 27.7L78.3001 26.3C79.1001 26.7 80.2001 27.1 81.3001 27.1C83.0001 27 84 26.1 84 25C84 23.5 82.4 23.1 80.7 23.1H79.7V21.7ZM90.6 16.9V21.5H96V16.9H98V28.2H96V23.1H90.6V28.2H88.6V16.9H90.6ZM102.3 23C102.3 25.8 104.1 26.9 106.2 26.9C107.7 26.9 108.6 26.6 109.3 26.3L109.7 27.8C109 28.1 107.7 28.5 105.9 28.5C102.4 28.5 100.3 26.2 100.3 22.8C100.3 19.4 102.3 16.7 105.6 16.7C109.3 16.7 110.3 20 110.3 22C110.3 22.4 110.3 22.7 110.2 23H102.3ZM108.3 21.5C108.3 20.2 107.8 18.2 105.4 18.2C103.3 18.2 102.4 20.1 102.2 21.5H108.3ZM120.7 27.8C120.2 28.1 119 28.5 117.4 28.5C114 28.5 111.8 26.2 111.8 22.7C111.8 19.2 114.2 16.7 117.9 16.7C119.1 16.7 120.2 17 120.8 17.3L120.3 18.9C119.8 18.6 119 18.4 117.9 18.4C115.3 18.4 113.9 20.3 113.9 22.7C113.9 25.3 115.6 26.9 117.8 26.9C119 26.9 119.7 26.6 120.3 26.3L120.7 27.8ZM62.1 45.7C62.1 49.4 59.9 51.3 57.1 51.3C54.3 51.3 52.3 49.1 52.3 45.9C52.3 42.5 54.4 40.3 57.3 40.3C60.3 40.2 62.1 42.5 62.1 45.7ZM53.8 45.8C53.8 48.1 55.0001 50.1 57.2001 50.1C59.4001 50.1 60.6 48.1 60.6 45.7C60.6 43.6 59.5001 41.4 57.2001 41.4C55.0001 41.4 53.8 43.5 53.8 45.8ZM65.5 40.4V50H70.4001V40.5H71.8001V50H72.7L72.6 53.7H71.5L71.4001 51.1H64.1V40.4H65.5ZM80.1 46.1H76V50H80.6V51.2H74.6V40.4H80.4001V41.6H76V45H80.2V46.1H80.1ZM84 40.4V44.9H89.2V40.4H90.6V51.1H89.2V46.1H84V51.1H82.6V40.4H84ZM94.4001 40.4V44.9C94.4001 46.6 94.4001 48 94.3001 49.4C94.8001 48.3 95.5001 47.1 96.3001 45.9L99.8001 40.4H101.2V51.1H99.9001V46.5C99.9001 44.8 99.9001 43.5 100 42.2C99.5 43.4 98.7001 44.6 98 45.8L94.7 51.1H93.2V40.4H94.4001ZM103.7 40.6C104.3 40.5 105.3 40.4 106.2 40.4C107.6 40.4 108.5 40.6 109.1 41.2C109.7 41.6 110 42.2 110 43.1C110 44.1 109.3 45 108.2 45.4C109.2 45.7 110.4 46.5 110.4 48.1C110.4 49 110 49.7 109.5 50.2C108.8 50.9 107.5 51.2 105.8 51.2C104.8 51.2 104.1 51.1 103.7 51.1V40.6ZM105.1 44.9H106.4C107.9 44.9 108.7 44.1 108.7 43.1C108.7 41.8 107.7 41.4 106.4 41.4C105.8 41.4 105.4 41.4 105.2 41.5V44.9H105.1ZM105.1 50.1C105.4 50.1 105.8 50.2 106.3 50.2C107.7 50.2 109 49.7 109 48.1C109 46.6 107.7 46 106.2 46H105.1V50.1ZM114.2 47.8L113.1 51.2H111.7L115.3 40.5H117L120.6 51.2H119.1L118 47.8H114.2ZM117.7 46.7L116.7 43.6C116.5 42.9 116.3 42.3 116.1 41.6C115.9 42.2 115.8 42.9 115.6 43.5L114.6 46.6H117.7V46.7ZM127.9 46.1H123.7V50H128.3V51.2H122.3V40.4H128.1V41.6H123.7V45H127.9V46.1ZM139.3 46.4C139.2 44.9 139.1 43.1 139.1 41.8C138.7 43.1 138.3 44.4 137.8 45.9L135.9 51.1H134.9L133.2 46C132.7 44.5 132.3 43.1 132 41.8C132 43.1 131.9 44.9 131.8 46.5L131.5 51.1H130L130.7 40.4H132.5L134.3 45.6C134.7 46.9 135.1 48.1 135.4 49.2C135.7 48.1 136.1 46.9 136.5 45.6L138.4 40.4H140.2L140.9 51.1H139.6L139.3 46.4ZM148.8 41.6H145.5V40.4H153.4V41.6H150.1V51.1H148.7V41.6H148.8ZM163.4 45.7C163.4 49.4 161.2 51.3 158.4 51.3C155.6 51.3 153.6 49.1 153.6 45.9C153.6 42.5 155.7 40.3 158.6 40.3C161.5 40.2 163.4 42.5 163.4 45.7ZM155.1 45.8C155.1 48.1 156.3 50.1 158.5 50.1C160.7 50.1 161.9 48.1 161.9 45.7C161.9 43.6 160.8 41.4 158.5 41.4C156.2 41.4 155.1 43.5 155.1 45.8ZM164.4 53.1C164.7 52.2 165.2 50.5 165.4 49.3L167 49.1C166.6 50.4 165.9 52.2 165.5 53L164.4 53.1ZM173.6 40.4V43.8C173.6 45.3 174.4 46.1 175.9 46.1C176.6 46.1 177.5 45.8 178 45.5V40.4H179.4V51.1H178V46.6C177.3 47 176.4 47.3 175.4 47.3C174 47.3 172.2 46.7 172.2 44.1V40.5H173.6V40.4ZM184 41.6H180.7V40.4H188.6V41.6H185.3V51.1H184V41.6ZM198.6 45.7C198.6 49.4 196.4 51.3 193.6 51.3C190.8 51.3 188.8 49.1 188.8 45.9C188.8 42.5 190.9 40.3 193.8 40.3C196.7 40.2 198.6 42.5 198.6 45.7ZM190.3 45.8C190.3 48.1 191.5 50.1 193.7 50.1C195.9 50.1 197.1 48.1 197.1 45.7C197.1 43.6 196 41.4 193.7 41.4C191.4 41.4 190.3 43.5 190.3 45.8ZM204 40.6C204.6 40.5 205.6 40.4 206.5 40.4C207.9 40.4 208.8 40.6 209.4 41.2C210 41.6 210.3 42.2 210.3 43.1C210.3 44.1 209.6 45 208.5 45.4C209.5 45.7 210.7 46.5 210.7 48.1C210.7 49 210.3 49.7 209.8 50.2C209.1 50.9 207.8 51.2 206.1 51.2C205.1 51.2 204.4 51.1 204 51.1V40.6ZM205.4 44.9H206.7C208.2 44.9 209 44.1 209 43.1C209 41.8 208 41.4 206.7 41.4C206.1 41.4 205.7 41.4 205.5 41.5V44.9H205.4ZM205.4 50.1C205.7 50.1 206.1 50.2 206.6 50.2C208 50.2 209.3 49.7 209.3 48.1C209.3 46.6 208 46 206.5 46H205.4V50.1ZM214.2 40.4V44.4C214.5 44.4 215.1 44.3 215.5 44.3C217.7 44.3 219.6 45.3 219.6 47.6C219.6 48.6 219.3 49.3 218.8 49.9C217.9 50.8 216.4 51.2 215 51.2C214 51.2 213.3 51.1 212.9 51.1V40.4H214.2ZM214.2 50.1C214.5 50.2 214.8 50.2 215.3 50.2C216.8 50.2 218.1 49.4 218.1 47.8C218.1 46.1 216.7 45.5 215.2 45.5C214.7 45.5 214.3 45.5 214.1 45.6V50.1H214.2ZM222.2 40.4V51.1H220.8V40.4H222.2ZM229.7 40.4V50H234.6V40.5H236V50H236.9L236.8 53.7H235.7L235.6 51.1H228.3V40.4H229.7ZM244.4 46.1H240.2V50H244.8V51.2H238.8V40.4H244.6V41.6H240.2V45H244.4V46.1ZM248.2 40.4V44.9H253.4V40.4H254.8V51.1H253.4V46.1H248.2V51.1H246.8V40.4H248.2ZM258.6 40.4V44.9C258.6 46.6 258.6 48 258.5 49.4C259 48.3 259.7 47.1 260.5 45.9L264 40.4H265.4V51.1H264V46.5C264 44.8 264 43.5 264.1 42.2C263.6 43.4 262.8 44.6 262.1 45.8L258.8 51.1H257.3V40.4H258.6ZM269.9 41.6H266.6V40.4H274.5V41.6H271.2V51.1H269.8V41.6H269.9ZM281.5 46.1H277.3V50H281.9V51.2H275.9V40.4H281.7V41.6H277.3V45H281.5V46.1ZM283.6 50.3C283.6 49.7 284 49.3 284.5 49.3C285.1 49.3 285.4 49.7 285.4 50.3C285.4 50.9 285 51.3 284.5 51.3C284 51.3 283.6 50.9 283.6 50.3ZM284 48L283.8 40.4H285.3L285.1 48H284Z" fill="#FA830B"/>
</svg>
