<svg width="311" height="359" viewBox="0 0 311 359" fill="none" xmlns="http://www.w3.org/2000/svg">
<g opacity="0.2">
<path d="M154.434 358.466C153.732 358.466 153.732 358.466 153.031 358.466H152.329H151.628C150.926 358.466 150.225 357.764 150.225 357.063L108.135 320.585C105.329 317.779 104.627 313.57 107.433 310.764C110.239 307.958 114.448 307.256 117.254 310.062L148.12 336.719V297.435C148.12 293.226 150.926 290.42 155.135 290.42C159.344 290.42 162.15 293.226 162.15 297.435V336.719L193.016 310.062C195.822 307.256 200.733 307.958 202.837 310.764C205.643 313.57 204.942 317.779 202.136 320.585L160.046 357.063C159.344 357.764 159.344 357.764 158.643 358.466H157.941C157.24 358.466 157.24 358.466 156.538 358.466C155.135 358.466 154.434 358.466 154.434 358.466Z" fill="white" fill-opacity="0.5"/>
<path d="M253.345 291.122C250.539 291.122 247.733 289.719 247.032 286.913C245.629 283.405 247.032 279.196 250.539 277.793L287.719 261.659L252.644 244.121C249.136 242.718 247.733 238.509 249.136 235.002C250.539 231.494 254.748 230.091 258.256 231.494L293.331 249.032L284.211 210.449C283.51 206.942 285.614 202.733 289.122 202.031C292.629 201.33 296.838 203.434 297.54 206.942L310.868 260.957C310.868 261.659 310.868 262.36 310.868 263.062V263.763C310.868 264.465 310.868 265.166 310.868 265.166C310.868 265.166 310.868 265.868 310.167 265.868C310.167 265.868 310.167 266.569 309.465 266.569C309.465 267.271 308.764 267.271 308.764 267.972C308.764 267.972 308.764 267.972 308.062 268.674C307.361 269.375 306.659 269.375 306.659 269.375L255.45 291.122C254.748 291.122 254.047 291.122 253.345 291.122Z" fill="white" fill-opacity="0.5"/>
<path d="M14.8354 152.224C11.3279 152.224 8.52189 149.418 7.82039 145.911L0.103882 91.1935C0.103882 90.492 0.103882 89.7905 0.103882 89.089V88.3875C0.103882 87.686 0.103882 87.686 0.805383 86.9845C0.805383 86.9845 0.805383 86.283 1.50688 86.283C1.50688 86.283 1.50688 85.5815 2.20838 85.5815C2.20838 84.88 2.90988 84.88 2.90988 84.88C2.90988 84.88 3.61139 84.88 3.61139 84.1785C4.31289 84.1785 5.01439 83.477 5.71589 83.477L59.0299 67.3425C62.5374 65.9395 66.7465 68.044 67.448 72.253C68.851 75.7605 66.7465 79.9695 62.5374 80.671L23.9549 92.5965L56.9254 113.642C60.4329 115.746 61.1344 119.955 59.0299 123.463C56.9254 126.269 52.7164 126.97 49.2089 124.866L16.2384 103.821L21.8504 143.806C22.5519 147.314 19.7459 151.523 16.2384 151.523C15.5369 152.224 15.5369 152.224 14.8354 152.224Z" fill="white" fill-opacity="0.5"/>
<path d="M293.331 148.718C293.331 148.718 292.629 148.718 293.331 148.718C289.122 148.718 286.316 145.21 286.316 141.001L288.42 100.314L257.554 124.165C254.748 126.27 249.838 126.27 247.733 122.762C245.629 119.956 245.629 115.046 249.136 112.941L280.002 89.09L240.017 80.672C236.509 79.9705 233.703 76.463 234.405 72.254C235.106 68.045 238.614 65.9405 242.823 66.642L297.54 77.866C298.241 77.866 298.943 77.866 299.644 78.5675C299.644 78.5675 300.346 78.5675 300.346 79.269L301.047 79.9705L301.749 80.672L302.45 81.3735C302.45 82.075 303.152 82.075 303.152 82.7765V83.478C303.152 84.1795 303.152 84.881 303.152 85.5825L300.346 141.001C300.346 145.912 296.838 148.718 293.331 148.718Z" fill="white"/>
<path d="M66.7473 286.212C66.0458 286.212 66.0458 286.212 65.3443 286.212L10.6272 276.391C9.92573 276.391 9.22423 276.391 8.52273 275.69C8.52273 275.69 8.52273 275.69 7.82122 275.69C7.11972 275.69 7.11972 274.988 6.41822 274.988L5.71672 274.287L5.01522 273.585C5.01522 272.884 4.31372 272.884 4.31372 272.182V271.481C4.31372 270.779 4.31372 270.078 4.31372 269.376L5.71672 213.958C5.71672 209.749 9.22423 206.943 12.7317 206.943C16.9407 206.943 19.7467 210.45 19.7467 213.958L19.0452 254.645L49.2098 230.092C52.0158 227.286 56.9263 227.988 59.0308 230.794C61.8368 233.6 61.1353 238.51 58.3293 240.615L28.1647 265.869L68.1503 272.884C71.6578 273.585 74.4638 277.093 73.7623 281.302C73.0608 284.108 70.2548 286.212 66.7473 286.212Z" fill="white" fill-opacity="0.5"/>
<path d="M154.434 68.7471C150.225 68.7471 147.419 65.9411 147.419 61.7321V22.448L116.553 49.1051C113.747 51.9111 108.836 51.2096 106.732 48.4036C103.926 45.5976 104.627 41.3885 107.433 38.5825L149.523 2.1045C150.225 1.403 150.225 1.403 150.926 0.701501H151.628C152.329 0.701501 152.329 0.701501 153.031 0H153.732H154.434C155.135 0 155.135 0 155.837 0H156.538C157.24 0 157.941 0.701501 157.941 1.403L200.031 37.881C202.837 40.687 203.539 44.8961 200.733 47.7021C197.927 50.5081 193.718 51.2096 190.912 48.4036L161.449 22.448V61.7321C161.449 65.2396 157.941 68.7471 154.434 68.7471Z" fill="white" fill-opacity="0.5"/>
<path d="M151.628 91.1948L76.5669 134.688V221.674L151.628 264.466L226.688 221.674V134.688L151.628 91.1948Z" fill="white"/>
</g>
</svg>
