<svg width="471" height="471" viewBox="0 0 471 471" fill="none" xmlns="http://www.w3.org/2000/svg">
<g opacity="0.2">
<path d="M234.434 358.466C233.732 358.466 233.732 358.466 233.031 358.466H232.329H231.628C230.926 358.466 230.225 357.764 230.225 357.063L188.135 320.585C185.329 317.779 184.627 313.57 187.433 310.764C190.239 307.958 194.448 307.256 197.254 310.062L228.12 336.719V297.435C228.12 293.226 230.926 290.42 235.135 290.42C239.344 290.42 242.15 293.226 242.15 297.435V336.719L273.016 310.062C275.822 307.256 280.733 307.958 282.837 310.764C285.643 313.57 284.942 317.779 282.136 320.585L240.046 357.063C239.344 357.764 239.344 357.764 238.643 358.466H237.941C237.24 358.466 237.24 358.466 236.538 358.466C235.135 358.466 234.434 358.466 234.434 358.466Z" fill="white" fill-opacity="0.5"/>
<path d="M333.345 291.122C330.539 291.122 327.733 289.719 327.032 286.913C325.629 283.405 327.032 279.196 330.539 277.793L367.719 261.659L332.644 244.121C329.136 242.718 327.733 238.509 329.136 235.002C330.539 231.494 334.748 230.091 338.256 231.494L373.331 249.032L364.211 210.449C363.51 206.942 365.614 202.733 369.122 202.031C372.629 201.33 376.838 203.434 377.54 206.942L390.868 260.957C390.868 261.659 390.868 262.36 390.868 263.062V263.763C390.868 264.465 390.868 265.166 390.868 265.166C390.868 265.166 390.868 265.868 390.167 265.868C390.167 265.868 390.167 266.569 389.465 266.569C389.465 267.271 388.764 267.271 388.764 267.972C388.764 267.972 388.764 267.972 388.062 268.674C387.361 269.375 386.659 269.375 386.659 269.375L335.45 291.122C334.748 291.122 334.047 291.122 333.345 291.122Z" fill="white" fill-opacity="0.5"/>
<path d="M94.8354 152.224C91.3279 152.224 88.5219 149.418 87.8204 145.911L80.1039 91.1935C80.1039 90.492 80.1039 89.7905 80.1039 89.089V88.3875C80.1039 87.686 80.1039 87.686 80.8054 86.9845C80.8054 86.9845 80.8054 86.283 81.5069 86.283C81.5069 86.283 81.5069 85.5815 82.2084 85.5815C82.2084 84.88 82.9099 84.88 82.9099 84.88C82.9099 84.88 83.6114 84.88 83.6114 84.1785C84.3129 84.1785 85.0144 83.477 85.7159 83.477L139.03 67.3425C142.537 65.9395 146.746 68.044 147.448 72.253C148.851 75.7605 146.746 79.9695 142.537 80.671L103.955 92.5965L136.925 113.642C140.433 115.746 141.134 119.955 139.03 123.463C136.925 126.269 132.716 126.97 129.209 124.866L96.2384 103.821L101.85 143.806C102.552 147.314 99.7459 151.523 96.2384 151.523C95.5369 152.224 95.5369 152.224 94.8354 152.224Z" fill="white" fill-opacity="0.5"/>
<path d="M373.331 148.718C373.331 148.718 372.629 148.718 373.331 148.718C369.122 148.718 366.316 145.21 366.316 141.001L368.42 100.314L337.554 124.165C334.748 126.27 329.838 126.27 327.733 122.762C325.629 119.956 325.629 115.046 329.136 112.941L360.002 89.09L320.017 80.672C316.509 79.9705 313.703 76.463 314.405 72.254C315.106 68.045 318.614 65.9405 322.823 66.642L377.54 77.866C378.241 77.866 378.943 77.866 379.644 78.5675C379.644 78.5675 380.346 78.5675 380.346 79.269L381.047 79.9705L381.749 80.672L382.45 81.3735C382.45 82.075 383.152 82.075 383.152 82.7765V83.478C383.152 84.1795 383.152 84.881 383.152 85.5825L380.346 141.001C380.346 145.912 376.838 148.718 373.331 148.718Z" fill="white"/>
<path d="M146.747 286.212C146.046 286.212 146.046 286.212 145.344 286.212L90.6272 276.391C89.9257 276.391 89.2242 276.391 88.5227 275.69C88.5227 275.69 88.5227 275.69 87.8212 275.69C87.1197 275.69 87.1197 274.988 86.4182 274.988L85.7167 274.287L85.0152 273.585C85.0152 272.884 84.3137 272.884 84.3137 272.182V271.481C84.3137 270.779 84.3137 270.078 84.3137 269.376L85.7167 213.958C85.7167 209.749 89.2242 206.943 92.7317 206.943C96.9407 206.943 99.7467 210.45 99.7467 213.958L99.0452 254.645L129.21 230.092C132.016 227.286 136.926 227.988 139.031 230.794C141.837 233.6 141.135 238.51 138.329 240.615L108.165 265.869L148.15 272.884C151.658 273.585 154.464 277.093 153.762 281.302C153.061 284.108 150.255 286.212 146.747 286.212Z" fill="white" fill-opacity="0.5"/>
<path d="M234.434 68.7471C230.225 68.7471 227.419 65.9411 227.419 61.7321V22.448L196.553 49.1051C193.747 51.9111 188.836 51.2096 186.732 48.4036C183.926 45.5976 184.627 41.3885 187.433 38.5825L229.523 2.1045C230.225 1.403 230.225 1.403 230.926 0.701501H231.628C232.329 0.701501 232.329 0.701501 233.031 0H233.732H234.434C235.135 0 235.135 0 235.837 0H236.538C237.24 0 237.941 0.701501 237.941 1.403L280.031 37.881C282.837 40.687 283.539 44.8961 280.733 47.7021C277.927 50.5081 273.718 51.2096 270.912 48.4036L241.449 22.448V61.7321C241.449 65.2396 237.941 68.7471 234.434 68.7471Z" fill="white" fill-opacity="0.5"/>
<path d="M231.628 91.1948L156.567 134.688V221.674L231.628 264.466L306.688 221.674V134.688L231.628 91.1948Z" fill="white"/>
</g>
<g opacity="0.5">
<path d="M165.193 387.008V418.838H161.163V390.433H146.457V418.838H142.428V387.008H165.193ZM184.532 418.838L184.129 416.017H183.928C182.719 417.83 180.302 419.442 176.877 419.442C172.243 419.442 169.826 416.219 169.826 412.794C169.826 407.355 174.661 404.333 183.525 404.333V403.93C183.525 402.117 182.921 398.692 178.287 398.692C176.071 398.692 173.855 399.297 172.445 400.304L171.438 397.483C173.251 396.275 176.071 395.469 178.891 395.469C185.942 395.469 187.554 400.304 187.554 404.736V413.197C187.554 415.211 187.554 417.024 187.957 418.636H184.532V418.838ZM183.928 407.153C179.496 407.153 174.258 407.959 174.258 412.19C174.258 414.808 176.071 416.219 178.086 416.219C181.107 416.219 182.921 414.406 183.525 412.391C183.726 411.988 183.726 411.585 183.726 410.981V407.153H183.928ZM194.001 403.326C194.001 400.304 194.001 398.088 193.799 395.872H197.425L197.627 399.699C199.238 396.879 202.059 395.267 205.685 395.267C211.124 395.267 215.355 399.901 215.355 406.952C215.355 415.211 210.318 419.24 205.081 419.24C202.059 419.24 199.44 417.83 198.03 415.614V428.104H194.001V403.326ZM198.231 409.369C198.231 409.974 198.231 410.578 198.433 410.981C199.238 413.801 201.656 415.816 204.678 415.816C209.11 415.816 211.527 412.19 211.527 406.952C211.527 402.318 209.11 398.491 204.678 398.491C201.857 398.491 199.238 400.505 198.433 403.527C198.231 404.131 198.231 404.736 198.231 405.139V409.369ZM235.5 395.872V399.095H228.449V418.636H224.42V399.095H217.369V395.872H235.5ZM242.551 395.872V405.139H253.43V395.872H257.459V418.636H253.43V408.362H242.551V418.636H238.522V395.872H242.551ZM266.121 408.161C266.121 413.801 269.747 416.017 273.978 416.017C277 416.017 278.813 415.413 280.223 414.808L281.029 417.83C279.619 418.435 277 419.24 273.373 419.24C266.323 419.24 262.092 414.607 262.092 407.758C262.092 400.908 266.121 395.469 272.769 395.469C280.223 395.469 282.237 402.117 282.237 406.146C282.237 406.952 282.237 407.556 282.036 408.161H266.121ZM278.41 405.139C278.41 402.52 277.403 398.491 272.568 398.491C268.337 398.491 266.524 402.318 266.121 405.139H278.41ZM287.072 403.326C287.072 400.304 287.072 398.088 286.871 395.872H290.497L290.699 399.699C292.31 396.879 295.131 395.267 298.757 395.267C304.196 395.267 308.426 399.901 308.426 406.952C308.426 415.211 303.39 419.24 298.152 419.24C295.131 419.24 292.512 417.83 291.101 415.614V428.104H287.072V403.326ZM291.101 409.369C291.101 409.974 291.101 410.578 291.303 410.981C292.109 413.801 294.526 415.816 297.548 415.816C301.98 415.816 304.397 412.19 304.397 406.952C304.397 402.318 301.98 398.491 297.548 398.491C294.728 398.491 292.109 400.505 291.303 403.527C291.101 404.131 291.101 404.736 291.101 405.139V409.369ZM317.492 387.008V401.11H318.701L329.579 387.008H334.616L322.528 401.513C327.766 402.318 329.781 405.34 331.392 409.772C332.601 412.995 333.407 416.017 334.817 418.838H330.385C329.176 416.622 328.37 413.801 327.565 411.384C326.154 407.153 324.14 404.333 318.701 404.333H317.29V418.838H313.261V387.008H317.492ZM358.992 407.153C358.992 415.614 353.149 419.24 347.71 419.24C341.465 419.24 336.832 414.808 336.832 407.556C336.832 399.901 341.868 395.469 348.113 395.469C354.56 395.469 358.992 400.102 358.992 407.153ZM340.861 407.355C340.861 412.391 343.681 416.219 347.71 416.219C351.739 416.219 354.56 412.593 354.56 407.355C354.56 403.527 352.545 398.491 347.71 398.491C342.875 398.491 340.861 403.124 340.861 407.355ZM367.654 395.872V405.139H378.533V395.872H382.562V418.636H378.533V408.362H367.654V418.636H363.625V395.872H367.654ZM405.125 417.83C404.117 418.435 401.7 419.24 398.477 419.24C391.627 419.24 387.195 414.607 387.195 407.556C387.195 400.505 392.03 395.469 399.484 395.469C401.901 395.469 404.117 396.073 405.326 396.678L404.319 399.901C403.311 399.297 401.7 398.894 399.484 398.894C394.246 398.894 391.426 402.721 391.426 407.556C391.426 412.794 394.85 416.017 399.282 416.017C401.7 416.017 403.11 415.413 404.319 414.808L405.125 417.83ZM422.248 418.838L421.845 416.017H421.644C420.435 417.83 418.018 419.442 414.593 419.442C409.959 419.442 407.542 416.219 407.542 412.794C407.542 407.355 412.377 404.333 421.241 404.333V403.93C421.241 402.117 420.637 398.692 416.003 398.692C413.787 398.692 411.571 399.297 410.161 400.304L409.154 397.483C410.967 396.275 413.787 395.469 416.607 395.469C423.658 395.469 425.27 400.304 425.27 404.736V413.197C425.27 415.211 425.27 417.024 425.673 418.636H422.248V418.838ZM421.644 407.153C417.212 407.153 411.974 407.959 411.974 412.19C411.974 414.808 413.787 416.219 415.802 416.219C418.823 416.219 420.637 414.406 421.241 412.391C421.442 411.988 421.442 411.585 421.442 410.981V407.153H421.644ZM449.243 395.872V418.636H445.214V399.095H437.357V404.937C437.357 411.384 436.753 415.614 433.731 417.629C432.522 418.435 431.314 419.039 429.299 419.039L428.896 415.816C429.702 415.614 430.508 415.413 431.112 414.808C433.328 413.197 433.53 409.974 433.53 404.937V395.67H449.243V395.872ZM471 395.872V399.095H463.949V418.636H459.92V399.095H452.668V395.872H471Z" fill="#FCAE60" fill-opacity="0.7"/>
<path d="M20.3469 387.008V390.433H6.64799V398.894C7.65526 398.692 9.46835 398.692 10.4756 398.692C13.4974 398.692 16.5192 399.297 18.7352 400.908C21.1527 402.52 22.7643 404.937 22.7643 408.765C22.7643 411.787 21.7571 414.003 20.1454 415.614C17.5265 418.233 13.296 419.24 8.86399 419.24C6.04363 419.24 3.82763 419.039 2.41745 418.838V387.008H20.3469ZM6.64799 415.614C7.65526 415.816 8.66253 415.816 10.0727 415.816C12.6916 415.816 15.1091 415.01 16.7207 413.398C17.728 412.19 18.5338 410.779 18.5338 408.765C18.5338 406.347 17.5265 404.736 15.9149 403.527C14.3033 402.318 12.0873 401.915 9.87126 401.915C8.86399 401.915 7.65526 401.915 6.64799 402.117V415.614ZM31.4269 395.872V405.542C31.4269 409.168 31.4269 411.384 31.2254 414.607H31.4269C32.837 411.787 33.6429 410.175 35.053 407.556L42.1039 395.872H46.9388V418.636H42.9098V408.966C42.9098 405.34 42.9097 403.326 43.1112 399.699H42.9098C41.4996 402.721 40.4923 404.534 39.0821 406.75C36.8661 410.377 34.4487 414.607 32.0312 418.636H27.5992V395.872H31.4269ZM55.1985 405.542H57.213C60.6377 405.542 63.0552 403.93 63.0552 401.915C63.0552 399.901 61.2421 398.692 58.6232 398.692C56.8101 398.692 54.7955 399.297 53.1839 400.304L52.1766 397.685C54.3926 396.275 57.213 395.67 59.8319 395.67C63.2566 395.67 67.4872 397.282 67.4872 401.714C67.4872 404.534 64.8683 406.347 62.4508 406.952C65.8755 407.153 68.6959 409.369 68.6959 412.593C68.6959 417.629 63.6595 419.442 58.8246 419.442C56.2057 419.442 53.3854 418.636 51.3708 417.629L52.3781 414.808C53.9897 415.614 56.2057 416.42 58.4217 416.42C61.8465 416.219 63.861 414.406 63.861 412.19C63.861 409.168 60.6377 408.362 57.213 408.362H55.1985V405.542ZM77.157 395.872V405.139H88.0355V395.872H92.0646V418.636H88.0355V408.362H77.157V418.636H73.1279V395.872H77.157ZM100.727 408.161C100.727 413.801 104.353 416.017 108.584 416.017C111.606 416.017 113.419 415.413 114.829 414.808L115.635 417.83C114.225 418.435 111.606 419.24 107.979 419.24C100.929 419.24 96.698 414.607 96.698 407.758C96.698 400.908 100.727 395.469 107.375 395.469C114.829 395.469 116.843 402.117 116.843 406.146C116.843 406.952 116.843 407.556 116.642 408.161H100.727ZM112.814 405.139C112.814 402.52 111.807 398.491 106.972 398.491C102.742 398.491 100.929 402.318 100.526 405.139H112.814ZM137.795 417.83C136.787 418.435 134.37 419.24 131.147 419.24C124.297 419.24 119.865 414.607 119.865 407.556C119.865 400.505 124.7 395.469 132.154 395.469C134.571 395.469 136.787 396.073 137.996 396.678L136.989 399.901C135.982 399.297 134.37 398.894 132.154 398.894C126.916 398.894 124.096 402.721 124.096 407.556C124.096 412.794 127.521 416.017 131.953 416.017C134.37 416.017 135.78 415.413 136.989 414.808L137.795 417.83ZM19.7425 453.891C19.7425 461.344 15.3105 465.172 9.6698 465.172C4.02908 465.172 0 460.74 0 454.294C0 447.444 4.23054 443.012 10.0727 443.012C16.1163 442.811 19.7425 447.444 19.7425 453.891ZM3.02181 454.092C3.02181 458.726 5.43927 462.755 9.87126 462.755C14.3033 462.755 16.7207 458.726 16.7207 453.891C16.7207 449.66 14.5047 445.228 9.87126 445.228C5.43927 445.228 3.02181 449.459 3.02181 454.092ZM26.592 443.214V462.553H36.4632V443.415H39.2836V462.553H41.0967L40.8952 470.007H38.6792L38.4778 464.769H23.7716V443.214H26.592ZM56.0043 454.696H47.7447V462.553H57.0115V464.971H44.9243V443.214H56.6086V445.631H47.7447V452.48H56.2057V454.696H56.0043ZM63.861 443.214V452.279H74.3366V443.214H77.157V464.769H74.3366V454.696H63.861V464.769H61.0406V443.214H63.861ZM84.8122 443.214V452.279C84.8122 455.704 84.8122 458.524 84.6108 461.344C85.6181 459.128 87.0282 456.711 88.6399 454.294L95.6908 443.214H98.5111V464.769H95.8922V455.502C95.8922 452.078 95.8922 449.459 96.0937 446.84C95.0864 449.257 93.4748 451.675 92.0646 454.092L85.4166 464.769H82.3948V443.214H84.8122ZM103.547 443.616C104.756 443.415 106.771 443.214 108.584 443.214C111.404 443.214 113.217 443.616 114.426 444.825C115.635 445.631 116.239 446.84 116.239 448.653C116.239 450.667 114.829 452.48 112.613 453.286C114.627 453.891 117.045 455.502 117.045 458.726C117.045 460.539 116.239 461.949 115.232 462.956C113.822 464.366 111.203 464.971 107.778 464.971C105.763 464.971 104.353 464.769 103.547 464.769V443.616ZM106.368 452.279H108.987C112.009 452.279 113.62 450.667 113.62 448.653C113.62 446.034 111.606 445.228 108.987 445.228C107.778 445.228 106.972 445.228 106.569 445.43V452.279H106.368ZM106.368 462.755C106.972 462.755 107.778 462.956 108.785 462.956C111.606 462.956 114.225 461.949 114.225 458.726C114.225 455.704 111.606 454.495 108.584 454.495H106.368V462.755ZM124.7 458.121L122.484 464.971H119.664L126.916 443.415H130.341L137.593 464.971H134.571L132.355 458.121H124.7ZM131.751 455.905L129.737 449.66C129.334 448.25 128.931 447.041 128.528 445.631C128.125 446.84 127.923 448.25 127.521 449.459L125.506 455.704H131.751V455.905ZM152.299 454.696H143.838V462.553H153.105V464.971H141.018V443.214H152.702V445.631H143.838V452.48H152.299V454.696ZM175.265 455.301C175.064 452.279 174.862 448.653 174.862 446.034C174.056 448.653 173.251 451.272 172.243 454.294L168.416 464.769H166.401L162.976 454.495C161.969 451.473 161.163 448.653 160.559 446.034C160.559 448.653 160.358 452.279 160.156 455.502L159.552 464.769H156.53L157.94 443.214H161.566L165.192 453.689C165.998 456.308 166.804 458.726 167.408 460.942C168.013 458.726 168.819 456.308 169.624 453.689L173.452 443.214H177.078L178.488 464.769H175.87L175.265 455.301ZM194.403 445.631H187.755V443.214H203.67V445.631H197.022V464.769H194.202V445.631H194.403ZM223.816 453.891C223.816 461.344 219.384 465.172 213.743 465.172C208.102 465.172 204.073 460.74 204.073 454.294C204.073 447.444 208.304 443.012 214.146 443.012C219.988 442.811 223.816 447.444 223.816 453.891ZM207.095 454.092C207.095 458.726 209.512 462.755 213.944 462.755C218.376 462.755 220.794 458.726 220.794 453.891C220.794 449.66 218.578 445.228 213.944 445.228C209.311 445.228 207.095 449.459 207.095 454.092ZM225.83 468.798C226.435 466.985 227.442 463.56 227.845 461.143L231.068 460.74C230.262 463.359 228.852 466.985 228.046 468.597L225.83 468.798ZM244.364 443.214V450.063C244.364 453.085 245.976 454.696 248.997 454.696C250.408 454.696 252.221 454.092 253.228 453.488V443.214H256.048V464.769H253.228V455.704C251.818 456.51 250.005 457.114 247.99 457.114C245.17 457.114 241.544 455.905 241.544 450.667V443.415H244.364V443.214ZM265.315 445.631H258.667V443.214H274.582V445.631H267.934V464.769H265.315V445.631ZM294.728 453.891C294.728 461.344 290.296 465.172 284.655 465.172C279.014 465.172 274.985 460.74 274.985 454.294C274.985 447.444 279.216 443.012 285.058 443.012C290.9 442.811 294.728 447.444 294.728 453.891ZM278.007 454.092C278.007 458.726 280.424 462.755 284.856 462.755C289.288 462.755 291.706 458.726 291.706 453.891C291.706 449.66 289.49 445.228 284.856 445.228C280.223 445.228 278.007 449.459 278.007 454.092ZM305.606 443.616C306.815 443.415 308.829 443.214 310.642 443.214C313.463 443.214 315.276 443.616 316.485 444.825C317.693 445.631 318.298 446.84 318.298 448.653C318.298 450.667 316.888 452.48 314.672 453.286C316.686 453.891 319.103 455.502 319.103 458.726C319.103 460.539 318.298 461.949 317.29 462.956C315.88 464.366 313.261 464.971 309.837 464.971C307.822 464.971 306.412 464.769 305.606 464.769V443.616ZM308.426 452.279H311.045C314.067 452.279 315.679 450.667 315.679 448.653C315.679 446.034 313.664 445.228 311.045 445.228C309.837 445.228 309.031 445.228 308.628 445.43V452.279H308.426ZM308.426 462.755C309.031 462.755 309.837 462.956 310.844 462.956C313.664 462.956 316.283 461.949 316.283 458.726C316.283 455.704 313.664 454.495 310.642 454.495H308.426V462.755ZM326.154 443.214V451.272C326.759 451.272 327.967 451.07 328.773 451.07C333.205 451.07 337.033 453.085 337.033 457.718C337.033 459.733 336.429 461.143 335.421 462.352C333.608 464.165 330.586 464.971 327.766 464.971C325.751 464.971 324.341 464.769 323.535 464.769V443.214H326.154ZM326.154 462.755C326.759 462.956 327.363 462.956 328.37 462.956C331.392 462.956 334.011 461.344 334.011 458.121C334.011 454.696 331.191 453.488 328.169 453.488C327.162 453.488 326.356 453.488 325.953 453.689V462.755H326.154ZM342.271 443.214V464.769H339.45V443.214H342.271ZM357.38 443.214V462.553H367.251V443.415H370.071V462.553H371.884L371.683 470.007H369.467L369.266 464.769H354.559V443.214H357.38ZM386.994 454.696H378.533V462.553H387.799V464.971H375.712V443.214H387.396V445.631H378.533V452.48H386.994V454.696ZM394.649 443.214V452.279H405.124V443.214H407.945V464.769H405.124V454.696H394.649V464.769H391.828V443.214H394.649ZM415.6 443.214V452.279C415.6 455.704 415.6 458.524 415.399 461.344C416.406 459.128 417.816 456.711 419.428 454.294L426.479 443.214H429.299V464.769H426.479V455.502C426.479 452.078 426.479 449.459 426.68 446.84C425.673 449.257 424.061 451.675 422.651 454.092L416.003 464.769H412.981V443.214H415.6ZM438.364 445.631H431.716V443.214H447.631V445.631H440.983V464.769H438.163V445.631H438.364ZM461.733 454.696H453.272V462.553H462.539V464.971H450.452V443.214H462.136V445.631H453.272V452.48H461.733V454.696ZM465.964 463.158C465.964 461.949 466.769 461.143 467.777 461.143C468.985 461.143 469.59 461.949 469.59 463.158C469.59 464.366 468.784 465.172 467.777 465.172C466.769 465.172 465.964 464.366 465.964 463.158ZM466.769 458.524L466.367 443.214H469.388L468.985 458.524H466.769Z" fill="#FCAE60"/>
</g>
</svg>
