<svg width="70" height="78" viewBox="0 0 70 78" fill="none" xmlns="http://www.w3.org/2000/svg">
<path d="M0 18.72L35 0L70 18.72V59.28L35 78L0 59.28V18.72Z" fill="white"/>
<path d="M37.4365 27.5057C37.4365 28.8969 36.3128 30.01 34.908 30.01C33.5033 30.01 32.3795 28.8969 32.3795 27.5057C32.3795 26.1144 33.5033 25.0013 34.908 25.0013C36.2659 24.955 37.4365 26.1144 37.4365 27.5057Z" stroke="#FA830B" stroke-width="2" stroke-miterlimit="10"/>
<path d="M40.0119 37.291V35.0186C40.0119 33.9519 39.1222 33.0244 37.9984 33.0708H31.9113C30.8343 33.0708 29.8979 33.9519 29.9447 35.0649V37.3374" stroke="#FA830B" stroke-width="2" stroke-miterlimit="10"/>
<path d="M46.3333 43.6445C46.3333 45.0357 45.2095 46.1488 43.8048 46.1488C42.4 46.1488 41.2762 45.0357 41.2762 43.6445C41.2762 42.2532 42.4 41.1401 43.8048 41.1401C45.1627 41.1401 46.3333 42.2532 46.3333 43.6445Z" stroke="#FA830B" stroke-width="2" stroke-miterlimit="10"/>
<path d="M48.9086 53.4763V51.2039C48.9086 50.1372 48.019 49.2097 46.8952 49.2561H40.808C39.7311 49.2561 38.7946 50.1372 38.8414 51.2502V53.5227" stroke="#FA830B" stroke-width="2" stroke-miterlimit="10"/>
<path d="M28.4932 43.6445C28.4932 45.0357 27.3694 46.1488 25.9647 46.1488C24.5599 46.1488 23.4362 45.0357 23.4362 43.6445C23.4362 42.2532 24.5599 41.1401 25.9647 41.1401C27.3694 41.1401 28.4932 42.2532 28.4932 43.6445Z" stroke="#FA830B" stroke-width="2" stroke-miterlimit="10"/>
<path d="M31.1153 53.4763V51.2039C31.1153 50.1372 30.2256 49.2097 29.1018 49.2561H23.0147C21.9377 49.2561 21.0012 50.1372 21.0481 51.2502V53.5227" stroke="#FA830B" stroke-width="2" stroke-miterlimit="10"/>
<path d="M35.0017 37.9402V41.4648" stroke="#FA830B" stroke-width="2" stroke-miterlimit="10" stroke-linecap="round"/>
<path d="M32.0518 43.5518L34.9549 41.4648" stroke="#FA830B" stroke-width="2" stroke-miterlimit="10" stroke-linecap="round"/>
<path d="M37.8581 43.5518L34.955 41.4648" stroke="#FA830B" stroke-width="2" stroke-miterlimit="10" stroke-linecap="round"/>
</svg>
