<svg width="70" height="78" viewBox="0 0 70 78" fill="none" xmlns="http://www.w3.org/2000/svg">
<path d="M0 18.72L35 0L70 18.72V59.28L35 78L0 59.28V18.72Z" fill="white"/>
<path d="M26.2096 44.1682L30.2034 37.7885L33.2635 42.1972L37.2573 38.3072L40.3694 41.2117L44.415 30.9939" stroke="#FA830B" stroke-width="2" stroke-miterlimit="10" stroke-linecap="round" stroke-linejoin="round"/>
<path d="M19 52H51.6245" stroke="#FA830B" stroke-width="2" stroke-miterlimit="10" stroke-linecap="round"/>
<path d="M19.8817 30.6307C19.8817 28.6079 21.4896 27 23.5124 27H47.1639C49.1867 27 50.7946 28.6079 50.7946 30.6307V44.5311C50.7946 46.554 49.1867 48.1618 47.1639 48.1618H23.5124C21.4896 48.1618 19.8817 46.554 19.8817 44.5311V30.6307V30.6307Z" stroke="#FA830B" stroke-width="2" stroke-miterlimit="10" stroke-linejoin="round"/>
</svg>
