<svg width="70" height="78" viewBox="0 0 70 78" fill="none" xmlns="http://www.w3.org/2000/svg">
<path d="M0 18.72L35 0L70 18.72V59.28L35 78L0 59.28V18.72Z" fill="white"/>
<path d="M36.3313 28.6592L37.887 27.1035" stroke="#FA830B" stroke-width="2"/>
<path d="M29.417 35.5735L30.9727 34.0178" stroke="#FA830B" stroke-width="2"/>
<path d="M37.3683 31.3096C37.3683 33.3839 35.6974 35.0548 33.6231 35.0548C31.5489 35.0548 29.8779 33.3839 29.8779 31.3096C29.8779 29.2354 31.5489 27.5645 33.6231 27.5645C35.6974 27.5645 37.3683 29.2354 37.3683 31.3096Z" stroke="#FA830B" stroke-width="2" stroke-miterlimit="10"/>
<path d="M36.9651 43.8704L36.2737 45.6565" stroke="#FA830B" stroke-width="2"/>
<path d="M39.6155 37.1292L38.9241 38.9153" stroke="#FA830B" stroke-width="2"/>
<path d="M35.5247 42.4299L33.7385 43.2366" stroke="#FA830B" stroke-width="2"/>
<path d="M42.1507 39.5491L40.3645 40.3557" stroke="#FA830B" stroke-width="2"/>
<path d="M40.4221 42.3723L42.2083 43.0637" stroke="#FA830B" stroke-width="2"/>
<path d="M33.6809 39.7219L35.4671 40.4133" stroke="#FA830B" stroke-width="2"/>
<path d="M40.3646 42.3721C39.846 43.6973 38.3479 44.3888 36.9651 43.8126C35.6399 43.294 34.9485 41.7959 35.5247 40.4131C36.0432 39.0879 37.5413 38.3965 38.9241 38.9727C40.2493 39.4912 40.8831 40.9893 40.3646 42.3721Z" stroke="#FA830B" stroke-width="2" stroke-miterlimit="10"/>
<path d="M44.5131 56.8345C44.225 55.106 43.8216 52.3403 43.9945 49.6898C43.9945 49.6898 44.974 45.2532 46.933 42.4299C46.933 42.4299 53.2134 31.7706 43.8793 24.8564C43.8793 24.8564 35.6399 18.7488 25.6143 24.3954C25.6143 24.3954 20.0253 26.8154 21.2353 34.5362C21.2353 34.5362 21.4658 36.6681 20.7744 37.7052L17.0868 42.0266C17.0868 42.0266 16.5682 43.2942 18.0663 43.4671L20.3134 43.928C20.3134 43.928 21.2353 45.7718 21.3505 47.1546C21.4658 48.5375 21.1201 50.3236 21.1201 50.3236C21.1201 50.3236 20.3134 52.3979 21.581 53.3198C21.8115 53.3774 22.7334 54.4145 29.3019 53.0317C29.3019 53.0317 29.9357 53.3198 30.339 56.7769" stroke="#FA830B" stroke-width="2" stroke-miterlimit="10" stroke-linecap="round" stroke-linejoin="round"/>
<path d="M21.6387 47.27H24.462" stroke="#FA830B" stroke-width="2" stroke-miterlimit="10" stroke-linecap="round" stroke-linejoin="round"/>
<path d="M33.6233 27.5069V25.3174" stroke="#FA830B" stroke-width="2"/>
<path d="M33.6233 37.302V35.1125" stroke="#FA830B" stroke-width="2"/>
<path d="M37.426 31.3098H39.6155" stroke="#FA830B" stroke-width="2"/>
<path d="M27.6309 31.3098H29.8204" stroke="#FA830B" stroke-width="2"/>
<path d="M30.9727 28.6592L29.417 27.1035" stroke="#FA830B" stroke-width="2"/>
<path d="M37.887 35.5735L36.3313 34.0178" stroke="#FA830B" stroke-width="2"/>
<path d="M38.9817 43.813L39.7883 45.5992" stroke="#FA830B" stroke-width="2"/>
<path d="M36.1008 37.1868L36.9075 38.9729" stroke="#FA830B" stroke-width="2"/>
</svg>
