<svg width="70" height="78" viewBox="0 0 70 78" fill="none" xmlns="http://www.w3.org/2000/svg">
<path d="M0 18.72L35 0L70 18.72V59.28L35 78L0 59.28V18.72Z" fill="white"/>
<path d="M41.6026 28.6482H39.14V48.7589H41.6026" stroke="#FA830B" stroke-width="2" stroke-miterlimit="10" stroke-linecap="round" stroke-linejoin="round"/>
<path d="M36.8599 38.7263H41.6481" stroke="#FA830B" stroke-width="2" stroke-miterlimit="10" stroke-linecap="round"/>
<path d="M46.482 28.6481C46.482 29.013 46.2084 29.3322 45.8436 29.3322C45.4788 29.3322 45.1595 29.0586 45.1595 28.6481C45.1595 28.2833 45.4788 27.9641 45.8436 27.9641C46.2084 27.9641 46.482 28.2833 46.482 28.6481Z" fill="#FA830B" stroke="#FA830B" stroke-width="2" stroke-miterlimit="10"/>
<path d="M46.482 38.7263C46.482 39.0911 46.2084 39.4103 45.8436 39.4103C45.4788 39.4103 45.1595 39.1367 45.1595 38.7263C45.1595 38.3615 45.4788 38.0422 45.8436 38.0422C46.2084 38.0878 46.482 38.3615 46.482 38.7263Z" fill="#FA830B" stroke="#FA830B" stroke-width="2" stroke-miterlimit="10"/>
<path d="M46.482 48.759C46.482 49.1238 46.2084 49.443 45.8436 49.443C45.4788 49.443 45.1595 49.1694 45.1595 48.759C45.1595 48.3942 45.4788 48.075 45.8436 48.075C46.2084 48.1206 46.482 48.3942 46.482 48.759Z" fill="#FA830B" stroke="#FA830B" stroke-width="2" stroke-miterlimit="10"/>
<path d="M31.8436 28.0554C31.8436 29.7427 30.4756 31.1107 28.7883 31.1107C27.101 31.1107 25.7329 29.7427 25.7329 28.0554C25.7329 26.3681 27.101 25 28.7883 25C30.4756 25 31.8436 26.3681 31.8436 28.0554Z" stroke="#FA830B" stroke-width="2" stroke-miterlimit="10"/>
<path d="M31.2508 52.9998V45.2474C32.5733 45.2474 33.6221 44.153 33.6221 42.8761V36.3093C33.6221 34.9868 32.5277 33.938 31.2508 33.938H26.3713C25.0489 33.938 24 35.0324 24 36.3093V42.8761C24 44.1986 25.0945 45.2474 26.3713 45.2474V52.9998" stroke="#FA830B" stroke-width="2" stroke-miterlimit="10"/>
</svg>
